<?xml version="1.0" encoding="utf-8"?>
<!-- Generator: Adobe Illustrator 24.3.0, SVG Export Plug-In . SVG Version: 6.00 Build 0)  -->
<svg version="1.1" id="rectangulo" xmlns="http://www.w3.org/2000/svg" xmlns:xlink="http://www.w3.org/1999/xlink" x="0px" y="0px"
	 viewBox="0 0 48 48" style="enable-background:new 0 0 48 48;" xml:space="preserve">
<style type="text/css">
	.st0{fill:none;stroke:#1D1D1B;stroke-miterlimit:10;}
	.st1{fill:none;stroke:#1D1D1B;stroke-width:0.5;stroke-miterlimit:10;}
	.st2{fill:#3483FA;stroke:#3483FA;stroke-width:0.5;stroke-miterlimit:10;}
	.st3{fill:none;stroke:#1D1D1B;stroke-miterlimit:10;stroke-dasharray:4;}
	.st4{fill:none;stroke:#1D1D1B;stroke-miterlimit:10;stroke-dasharray:4,1;}
	.st5{fill:#3483FA;stroke:#3483FA;stroke-miterlimit:10;}
</style>
<g>
	<path class="st0" d="M42,35.4H6c-0.6,0-1-0.4-1-1V13.6c0-0.6,0.4-1,1-1h36c0.6,0,1,0.4,1,1v20.8C43,35,42.6,35.4,42,35.4z"/>
	<g>
		<circle class="st1" cx="14.1" cy="17.9" r="2.5"/>
		<circle class="st2" cx="9.6" cy="17.9" r="2.5"/>
	</g>
	<line class="st3" x1="7" y1="23.9" x2="41" y2="23.9"/>
	<g>
		<line class="st4" x1="7" y1="29.4" x2="20.8" y2="29.4"/>
		<line class="st0" x1="7" y1="31.6" x2="19" y2="31.6"/>
	</g>
</g>
<path class="st5" d="M40.3,28.5v3.2c0,0.6-0.4,1-1,1h-5.4c-0.6,0-1-0.4-1-1v-3.2c0-0.6,0.4-1,1-1h5.4C39.8,27.5,40.3,27.9,40.3,28.5
	z"/>
</svg>
