<?xml version="1.0" encoding="utf-8"?>
<!-- Generator: Adobe Illustrator 24.3.0, SVG Export Plug-In . SVG Version: 6.00 Build 0)  -->
<svg version="1.1" id="Capa_1" xmlns="http://www.w3.org/2000/svg" xmlns:xlink="http://www.w3.org/1999/xlink" x="0px" y="0px"
	 viewBox="0 0 48 48" style="enable-background:new 0 0 48 48;" xml:space="preserve">
<style type="text/css">
	.st0{fill:none;stroke:#1D1D1B;stroke-miterlimit:10;}
	.st1{fill:#1D1D1B;stroke:#1D1D1B;stroke-width:0.25;stroke-miterlimit:10;}
	.st2{fill:#FFFFFF;}
	.st3{fill:none;stroke:#1D1D1B;stroke-width:0.5;stroke-miterlimit:10;}
	.st4{fill:#3483FA;}
</style>
<g>
	<path class="st0" d="M25.3,39.7H11.2c-0.3,0-0.5-0.2-0.5-0.5v-6.4c0-0.3,0.2-0.5,0.5-0.5h14.1c0.3,0,0.5,0.2,0.5,0.5v6.4
		C25.8,39.5,25.6,39.7,25.3,39.7z"/>
	<g>
		<path class="st1" d="M15.1,35.4c0,0.7-1,2.3-1.2,2.6c0,0-0.1,0-0.1,0c-0.2-0.4-1.2-1.9-1.2-2.6c0-0.8,0.6-1.4,1.3-1.4
			C14.5,34,15.1,34.6,15.1,35.4z"/>
		<circle class="st2" cx="13.8" cy="35.5" r="0.5"/>
	</g>
	<g>
		<line class="st3" x1="18.2" y1="34.8" x2="23.3" y2="34.8"/>
		<line class="st3" x1="18.2" y1="36" x2="20.8" y2="36"/>
		<line class="st3" x1="18.2" y1="37.3" x2="23.3" y2="37.3"/>
	</g>
</g>
<g>
	<polyline class="st0" points="40.2,12.1 40.2,42.1 8.2,42.1 8.2,12.1 	"/>
	<path class="st0" d="M40.8,11.9h-33c-0.6,0-1-0.4-1-1v-4c0-0.6,0.4-1,1-1h33c0.6,0,1,0.4,1,1v4C41.8,11.4,41.3,11.9,40.8,11.9z"/>
</g>
<polygon class="st4" points="28,20.4 26.9,19.5 25.7,20.4 24.3,19.5 22.8,20.4 21.4,19.5 20,20.4 20,5.4 28,5.4 "/>
</svg>
