<?xml version="1.0" encoding="utf-8"?>
<!-- Generator: Adobe Illustrator 24.3.0, SVG Export Plug-In . SVG Version: 6.00 Build 0)  -->
<svg version="1.1" id="Capa_1" xmlns="http://www.w3.org/2000/svg" xmlns:xlink="http://www.w3.org/1999/xlink" x="0px" y="0px"
	 viewBox="0 0 48 48" style="enable-background:new 0 0 48 48;" xml:space="preserve">
<style type="text/css">
	.st0{fill:none;stroke:#3483FA;stroke-miterlimit:10;}
	.st1{fill:#009FE3;stroke:#3483FA;stroke-miterlimit:10;}
</style>
<g>
	<path class="st0" d="M11.2,38c-4.6,0-8.3-3.8-8.3-8.4s3.7-8.4,8.3-8.4c0.4,0,0.8,0,1.1,0.1"/>
	<path class="st0" d="M19,33.1c-1.5,2.3-4.9,4.9-7.8,4.9C6.7,38,3,34.2,3,29.6s3.7-8.4,8.3-8.4c0.4,0,0.8,0,1.1,0.1"/>
	<path class="st0" d="M36.4,21.2c0.1,0,0.3,0,0.4,0c4.6,0,8.3,3.8,8.3,8.4S41.4,38,36.8,38c-3.4,0-6.7-2.1-8-5"/>
	<line class="st0" x1="18.6" y1="33.3" x2="29.3" y2="33.3"/>
	<line class="st0" x1="10.6" y1="21.2" x2="37" y2="21.2"/>
	<line class="st0" x1="7.5" y1="29.2" x2="14.1" y2="29.2"/>
	<line class="st0" x1="10.8" y1="32.5" x2="10.8" y2="25.8"/>
	<ellipse class="st1" cx="34.5" cy="30.8" rx="1.1" ry="1.1"/>
	<ellipse class="st1" cx="39.2" cy="28.8" rx="1.1" ry="1.1"/>
	<line class="st0" x1="24" y1="19.6" x2="24" y2="10"/>
</g>
</svg>
