<?xml version="1.0" encoding="utf-8"?>
<!-- Generator: Adobe Illustrator 24.3.0, SVG Export Plug-In . SVG Version: 6.00 Build 0)  -->
<svg version="1.1" id="Capa_1" xmlns="http://www.w3.org/2000/svg" xmlns:xlink="http://www.w3.org/1999/xlink" x="0px" y="0px"
	 viewBox="0 0 48 48" style="enable-background:new 0 0 48 48;" xml:space="preserve">
<style type="text/css">
	.st0{fill:none;stroke:#3483FA;stroke-miterlimit:10;}
</style>
<g>
	<path class="st0" d="M6.5,28.2"/>
	<polyline class="st0" points="41.6,28.2 42,28.2 42,38.9 6,38.9 6,28.2 	"/>
	<polyline class="st0" points="14.5,28.2 14.5,28.2 14.6,28.2 14.6,28.2 14.6,28.2 33.5,28.2 	"/>
	<path class="st0" d="M6,28.2v-2.7c0-1,0.8-1.8,1.8-1.8h5.4c1,0,1.8,0.8,1.8,1.8v2.7"/>
	<path class="st0" d="M42,28.2v-2.7c0-1-0.8-1.8-1.8-1.8h-5.4c-1,0-1.8,0.8-1.8,1.8v2.7"/>
	<line class="st0" x1="10.5" y1="23.8" x2="10.5" y2="6"/>
	<line class="st0" x1="37.5" y1="23.8" x2="37.5" y2="6"/>
	<line class="st0" x1="10.1" y1="6.5" x2="37.9" y2="6.5"/>
	<line class="st0" x1="10.5" y1="39.3" x2="10.5" y2="42"/>
	<line class="st0" x1="37.5" y1="39.3" x2="37.5" y2="42"/>
</g>
</svg>
