<?xml version="1.0" encoding="utf-8"?>
<!-- Generator: Adobe Illustrator 24.3.0, SVG Export Plug-In . SVG Version: 6.00 Build 0)  -->
<svg version="1.1" id="Capa_1" xmlns="http://www.w3.org/2000/svg" xmlns:xlink="http://www.w3.org/1999/xlink" x="0px" y="0px"
	 viewBox="0 0 48 48" style="enable-background:new 0 0 48 48;" xml:space="preserve">
<style type="text/css">
	.st0{fill:none;stroke:#3383FA;stroke-width:0.75;stroke-miterlimit:10;}
</style>
<g>
	<path class="st0" d="M25.8,35.8h-3.6c-5,0-9-4-9-9V13c0-5,4-9,9-9h3.6c5,0,9,4,9,9v13.8C34.8,31.8,30.8,35.8,25.8,35.8z"/>
	<g>
		<line class="st0" x1="24" y1="38.9" x2="24" y2="44"/>
		<path class="st0" d="M12,31.3c0,10.2,24,10.2,24,0"/>
		<line class="st0" x1="20.4" y1="44" x2="27.6" y2="44"/>
	</g>
	<line class="st0" x1="13.5" y1="26.3" x2="19.5" y2="26.3"/>
	<line class="st0" x1="28.4" y1="26.3" x2="34.4" y2="26.3"/>
	<line class="st0" x1="28.4" y1="23.7" x2="34.5" y2="23.7"/>
	<line class="st0" x1="28.4" y1="16.1" x2="34.5" y2="16.1"/>
	<line class="st0" x1="28.4" y1="13.5" x2="34.5" y2="13.5"/>
	<line class="st0" x1="13.5" y1="23.7" x2="19.5" y2="23.7"/>
	<line class="st0" x1="13.5" y1="16.1" x2="19.5" y2="16.1"/>
	<line class="st0" x1="13.5" y1="13.5" x2="19.5" y2="13.5"/>
</g>
</svg>
