<?xml version="1.0" encoding="utf-8"?>
<!-- Generator: Adobe Illustrator 24.3.0, SVG Export Plug-In . SVG Version: 6.00 Build 0)  -->
<svg version="1.1" id="Capa_1" xmlns="http://www.w3.org/2000/svg" xmlns:xlink="http://www.w3.org/1999/xlink" x="0px" y="0px"
	 viewBox="0 0 51 55" style="enable-background:new 0 0 51 55;" xml:space="preserve">
<style type="text/css">
	.st0{fill:#3483FA;}
	.st1{fill:none;stroke:#000000;stroke-linecap:round;stroke-linejoin:round;}
</style>
<g>
	<path class="st0" d="M23.1,32.9l-4.7-4.7c-0.3-0.3-0.3-0.9,0-1.2l1.3-1.3c0.3-0.3,0.9-0.3,1.2,0l2.8,2.8l7.9-7.9
		c0.3-0.3,0.9-0.3,1.2,0l1.3,1.3c0.3,0.3,0.3,0.9,0,1.2l-9.8,9.8C24,33.2,23.4,33.2,23.1,32.9z"/>
	<path class="st1" d="M25.5,5.4c0,0-5.9,8.5-20.4,5.9c0,0-5.1,24.9,20.4,38.3C51,36.2,45.9,11.3,45.9,11.3
		C31.4,13.8,25.5,5.4,25.5,5.4z"/>
</g>
</svg>
