<svg width="56" height="49" viewBox="0 0 56 49" fill="none" xmlns="http://www.w3.org/2000/svg">
<g clip-path="url(#clip0_1_121)">
<path d="M53.1568 1H2.8432C1.82523 1 1 1.82523 1 2.8432V8.87832C1 9.89629 1.82523 10.7215 2.8432 10.7215H53.1568C54.1748 10.7215 55 9.89629 55 8.87832V2.8432C55 1.82523 54.1748 1 53.1568 1Z" stroke="#484848" stroke-width="1.3824"/>
<path fill-rule="evenodd" clip-rule="evenodd" d="M3 10.7215H52.0909V47.0485C52.0909 47.7271 51.5408 48.2773 50.8621 48.2773H4.2288C3.55015 48.2773 3 47.7271 3 47.0485V10.7215Z" stroke="#484848" stroke-width="1.3824"/>
<path fill-rule="evenodd" clip-rule="evenodd" d="M23 21.5202L24.6366 19.8695L26.2727 21.5202L27.9091 19.8695L29.5454 21.5202L31.1819 19.8695L32.8182 21.5202V10H23V21.5202Z" fill="#4E89E5"/>
<path d="M32.8182 0.299805H23V10.7215H32.8182V0.299805Z" fill="#4C8CF1"/>
<path fill-rule="evenodd" clip-rule="evenodd" d="M26.8726 43.9475H8.45479C8.20366 43.9475 8 43.7316 8 43.4657V33.4822C8 33.2159 8.20366 33 8.45479 33H26.8726C27.1237 33 27.3272 33.2159 27.3272 33.4822V43.4657C27.3272 43.7316 27.1237 43.9475 26.8726 43.9475Z" fill="white" stroke="#484848" stroke-width="1.2288"/>
<path fill-rule="evenodd" clip-rule="evenodd" d="M12.5472 38.5807C12.2688 38.5807 12.0209 38.4533 11.8594 38.2534C11.7389 38.1047 11.6667 37.9157 11.6667 37.7098C11.6667 37.2287 12.0608 36.8391 12.5472 36.8391C13.0335 36.8391 13.4277 37.2287 13.4277 37.7098C13.4277 38.191 13.0335 38.5807 12.5472 38.5807ZM12.5472 35.4304C11.2745 35.4304 10.2425 36.4509 10.2425 37.7098C10.2425 38.1713 10.3874 38.5962 10.6258 38.9554L12.5472 41.5063L14.4743 38.9554C14.7114 38.5968 14.8517 38.17 14.8517 37.7098C14.8517 36.4509 13.8201 35.4304 12.5472 35.4304Z" fill="#484848"/>
<path fill-rule="evenodd" clip-rule="evenodd" d="M17.1985 36.6455H23.347C23.6825 36.6455 23.9545 36.3735 23.9545 36.038C23.9545 35.7024 23.6825 35.4304 23.347 35.4304H17.1985C16.8629 35.4304 16.5909 35.7024 16.5909 36.038C16.5909 36.3735 16.8629 36.6455 17.1985 36.6455Z" fill="#484848"/>
<path fill-rule="evenodd" clip-rule="evenodd" d="M17.1985 39.076H21.506C21.8416 39.076 22.1136 38.8039 22.1136 38.4684C22.1136 38.1328 21.8416 37.8608 21.506 37.8608H17.1985C16.8629 37.8608 16.5909 38.1328 16.5909 38.4684C16.5909 38.8039 16.8629 39.076 17.1985 39.076Z" fill="#484848"/>
<path fill-rule="evenodd" clip-rule="evenodd" d="M17.1985 41.5063H22.1197C22.4552 41.5063 22.7273 41.2343 22.7273 40.8987C22.7273 40.5632 22.4552 40.2911 22.1197 40.2911H17.1985C16.8629 40.2911 16.5909 40.5632 16.5909 40.8987C16.5909 41.2343 16.8629 41.5063 17.1985 41.5063Z" fill="#484848"/>
</g>
<defs>
<clipPath id="clip0_1_121">
<rect width="56" height="49" fill="white"/>
</clipPath>
</defs>
</svg>
