<svg width="48" height="48" viewBox="0 0 48 48" fill="none" xmlns="http://www.w3.org/2000/svg">
<g clip-path="url(#clip0_1_37)">
<path fill-rule="evenodd" clip-rule="evenodd" d="M24 47.5C36.9787 47.5 47.5 36.9787 47.5 24C47.5 11.0213 36.9787 0.5 24 0.5C11.0213 0.5 0.5 11.0213 0.5 24C0.5 36.9787 11.0213 47.5 24 47.5Z" stroke="#EEEEEE"/>
<path fill-rule="evenodd" clip-rule="evenodd" d="M19.866 11.7717L35.2208 27.1266L25.7717 36.5757L10.4169 21.2209L19.866 11.7717Z" fill="#5697FA"/>
<path fill-rule="evenodd" clip-rule="evenodd" d="M14.2921 19.7079L18.353 15.647C18.6642 16.1563 19.2254 16.4963 19.866 16.4963C20.5066 16.4963 21.0678 16.1563 21.379 15.647L31.3456 25.6136C30.8362 25.9248 30.4963 26.486 30.4963 27.1266C30.4963 27.7671 30.8362 28.3283 31.3456 28.6395L27.2847 32.7005C26.9735 32.1911 26.4123 31.8511 25.7717 31.8511C25.1311 31.8511 24.5699 32.1911 24.2587 32.7005L14.2921 22.7338C14.8015 22.4226 15.1414 21.8614 15.1414 21.2209C15.1414 20.5803 14.8015 20.0191 14.2921 19.7079Z" fill="white"/>
<path d="M22.8189 28.3077C25.102 28.3077 26.9529 26.4569 26.9529 24.1737C26.9529 21.8906 25.102 20.0397 22.8189 20.0397C20.5357 20.0397 18.6849 21.8906 18.6849 24.1737C18.6849 26.4569 20.5357 28.3077 22.8189 28.3077Z" fill="#3483FA"/>
<path fill-rule="evenodd" clip-rule="evenodd" d="M20.9396 25.6395L20.6752 25.9039C20.4585 26.1206 20.5864 26.5215 21.0176 26.5172C21.0347 26.5167 21.051 26.5097 21.0632 26.4977L21.4207 26.1401C22.1143 26.6927 22.8923 26.7144 23.4146 26.1921C23.9369 25.6698 23.9326 25.0348 23.3691 24.0964L23.0917 23.6196C22.8446 23.1341 22.8923 22.9478 23.0678 22.7722C23.2434 22.5967 23.5641 22.588 23.8632 22.8329C23.8995 22.8629 23.9342 22.8948 23.9672 22.9283C24.0543 23.0187 24.1293 23.1199 24.1905 23.2295C24.3121 23.4479 24.4053 23.681 24.4679 23.923C24.4853 24.0045 24.5251 24.0796 24.5827 24.1397C24.7513 24.3049 25.021 24.3049 25.1896 24.1397C25.3047 24.0272 25.3436 23.8578 25.2893 23.7063C25.2098 23.3457 25.0522 23.0069 24.8276 22.7137L25.1614 22.38C25.1734 22.3678 25.1804 22.3515 25.1809 22.3344C25.1809 21.901 24.7735 21.784 24.5676 21.992L24.3508 22.2087C23.6747 21.6561 22.9096 21.6323 22.4003 22.1524C21.891 22.6725 21.8759 23.288 22.4307 24.2351L22.7168 24.7032C22.9747 25.1952 22.9335 25.3946 22.7449 25.5701C22.5282 25.7868 22.2378 25.763 21.9214 25.5094C21.9214 25.5094 21.8802 25.4726 21.8217 25.4141C21.7298 25.323 21.6457 25.2244 21.5703 25.1193C21.3773 24.8124 21.2483 24.4696 21.191 24.1116C21.1865 23.9393 21.0804 23.7861 20.9207 23.7213C20.7611 23.6565 20.5782 23.6924 20.4549 23.8128C20.3316 23.9332 20.2914 24.1151 20.3523 24.2763C20.4303 24.7728 20.6323 25.2417 20.9396 25.6395Z" fill="white"/>
<path fill-rule="evenodd" clip-rule="evenodd" d="M30 17L28.6969 15.784C27.0813 14.2765 24.5048 14.3213 22.9399 15.8861L19.866 18.9601C21.1707 20.2647 24 19.5506 24 19.5506L25.7717 17.7789L33.95 26H37V17H30Z" fill="#0864EE"/>
<mask id="mask0_1_37" style="mask-type:alpha" maskUnits="userSpaceOnUse" x="13" y="22" width="14" height="13">
<path d="M16.4017 22.6265C16.7481 22.2801 17.2016 22.1068 17.6555 22.1068C18.0772 22.1068 18.4985 22.2565 18.8346 22.5559C19.4556 23.2525 19.4328 24.3203 18.764 24.9888L16.547 27.2061C15.8785 27.8743 14.8107 27.8988 14.1133 27.2755C13.4932 26.5792 13.5162 25.512 14.1847 24.8438L16.4017 22.6265ZM18.764 24.9888C19.1104 24.6424 19.5642 24.4691 20.0181 24.4691C20.4394 24.4691 20.8608 24.6185 21.1966 24.9182C21.8178 25.6145 21.7951 26.6826 21.1263 27.3511L18.9093 29.5684C18.241 30.2363 17.1742 30.2611 16.4764 29.6387C15.8554 28.9427 15.8782 27.8746 16.547 27.2061L18.764 24.9888ZM21.1263 27.3511C21.4727 27.0047 21.9262 26.8314 22.3801 26.8314C22.802 26.8314 23.224 26.9814 23.56 27.2817C24.1801 27.978 24.1571 29.0448 23.4886 29.7134L21.2716 31.9307C20.6033 32.5986 19.5365 32.6234 18.8387 32.0009C18.2177 31.3049 18.2405 30.2369 18.9093 29.5684L21.1263 27.3511ZM23.4886 29.7134C23.8349 29.367 24.2888 29.1937 24.7423 29.1937C25.1643 29.1937 25.5863 29.3437 25.9223 29.644C26.5424 30.3403 26.5191 31.4071 25.8508 32.0756L23.6335 34.2929C22.9659 34.9609 21.8987 34.9857 21.2013 34.3635C20.58 33.6672 20.6027 32.5992 21.2716 31.9307L23.4886 29.7134Z" fill="white"/>
</mask>
<g mask="url(#mask0_1_37)">
<path d="M16.4017 22.6265C16.7481 22.2801 17.2016 22.1068 17.6555 22.1068C18.0772 22.1068 18.4985 22.2565 18.8346 22.5559C19.4556 23.2525 19.4328 24.3203 18.764 24.9888L16.547 27.2061C15.8785 27.8743 14.8107 27.8988 14.1133 27.2755C13.4932 26.5792 13.5162 25.512 14.1847 24.8438L16.4017 22.6265ZM18.764 24.9888C19.1104 24.6424 19.5642 24.4691 20.0181 24.4691C20.4394 24.4691 20.8608 24.6185 21.1966 24.9182C21.8178 25.6145 21.7951 26.6826 21.1263 27.3511L18.9093 29.5684C18.241 30.2363 17.1742 30.2611 16.4764 29.6387C15.8554 28.9427 15.8782 27.8746 16.547 27.2061L18.764 24.9888ZM21.1263 27.3511C21.4727 27.0047 21.9262 26.8314 22.3801 26.8314C22.802 26.8314 23.224 26.9814 23.56 27.2817C24.1801 27.978 24.1571 29.0448 23.4886 29.7134L21.2716 31.9307C20.6033 32.5986 19.5365 32.6234 18.8387 32.0009C18.2177 31.3049 18.2405 30.2369 18.9093 29.5684L21.1263 27.3511ZM23.4886 29.7134C23.8349 29.367 24.2888 29.1937 24.7423 29.1937C25.1643 29.1937 25.5863 29.3437 25.9223 29.644C26.5424 30.3403 26.5191 31.4071 25.8508 32.0756L23.6335 34.2929C22.9659 34.9609 21.8987 34.9857 21.2013 34.3635C20.58 33.6672 20.6027 32.5992 21.2716 31.9307L23.4886 29.7134Z" fill="#0864EE"/>
</g>
</g>
<defs>
<clipPath id="clip0_1_37">
<rect width="48" height="48" fill="white"/>
</clipPath>
</defs>
</svg>
