<svg width="48" height="48" viewBox="0 0 48 48" fill="none" xmlns="http://www.w3.org/2000/svg">
<g clip-path="url(#clip0_1_3)">
<path fill-rule="evenodd" clip-rule="evenodd" d="M24 47.5C36.9787 47.5 47.5 36.9787 47.5 24C47.5 11.0213 36.9787 0.5 24 0.5C11.0213 0.5 0.5 11.0213 0.5 24C0.5 36.9787 11.0213 47.5 24 47.5Z" stroke="#EEEEEE"/>
<path fill-rule="evenodd" clip-rule="evenodd" d="M14 24.5C14 24.2236 14.2251 24 14.5 24H17.5C17.7768 24 18 24.2217 18 24.5C18 24.7759 17.7744 25 17.5 25H14.5C14.2232 25 14 24.7779 14 24.5Z" fill="white"/>
<path fill-rule="evenodd" clip-rule="evenodd" d="M19 24.5C19 24.2236 19.2251 24 19.5 24H22.5C22.7764 24 23 24.2217 23 24.5C23 24.7759 22.7744 25 22.5 25H19.5C19.2232 25 19 24.7779 19 24.5Z" fill="white"/>
<path fill-rule="evenodd" clip-rule="evenodd" d="M24 24.5C24 24.2236 24.2256 24 24.5 24H27.5C27.7764 24 28 24.2217 28 24.5C28 24.7759 27.7744 25 27.5 25H24.5C24.2232 25 24 24.7779 24 24.5Z" fill="white"/>
<path fill-rule="evenodd" clip-rule="evenodd" d="M30 24.5C30 24.2236 30.2256 24 30.5 24H33.5C33.7768 24 34 24.2217 34 24.5C34 24.7759 33.7744 25 33.5 25H30.5C30.2232 25 30 24.7779 30 24.5Z" fill="white"/>
<path fill-rule="evenodd" clip-rule="evenodd" d="M12 17.5238C12 16.6699 12.6993 16 13.5652 16H34.4348C35.2994 16 36 16.6719 36 17.5238V30.4762C36 31.3292 35.3012 32 34.4348 32H13.5652C12.7011 32 12 31.3277 12 30.4762V17.5238Z" fill="#5697FA"/>
<path fill-rule="evenodd" clip-rule="evenodd" d="M14 22H18V19H14V22Z" fill="#0864EE"/>
<path fill-rule="evenodd" clip-rule="evenodd" d="M14 29.5C14 29.2236 14.2232 29 14.5 29H23.5C23.7766 29 24 29.2217 24 29.5C24 29.7759 23.7775 30 23.5 30H14.5C14.2236 30 14 29.7779 14 29.5Z" fill="#0864EE"/>
<path fill-rule="evenodd" clip-rule="evenodd" d="M14 27.5C14 27.2235 14.2462 27 14.5517 27H21.4483C21.7533 27 22 27.2216 22 27.5C22 27.7756 21.7538 28 21.4483 28H14.5517C14.2467 28 14 27.7776 14 27.5Z" fill="#0864EE"/>
<path fill-rule="evenodd" clip-rule="evenodd" d="M14 24.5C14 24.2236 14.2251 24 14.5 24H17.5C17.7768 24 18 24.2217 18 24.5C18 24.7759 17.7744 25 17.5 25H14.5C14.2232 25 14 24.7779 14 24.5Z" fill="white"/>
<path fill-rule="evenodd" clip-rule="evenodd" d="M19 24.5C19 24.2236 19.2251 24 19.5 24H22.5C22.7764 24 23 24.2217 23 24.5C23 24.7759 22.7744 25 22.5 25H19.5C19.2232 25 19 24.7779 19 24.5Z" fill="white"/>
<path fill-rule="evenodd" clip-rule="evenodd" d="M24 24.5C24 24.2236 24.2256 24 24.5 24H27.5C27.7764 24 28 24.2217 28 24.5C28 24.7759 27.7744 25 27.5 25H24.5C24.2232 25 24 24.7779 24 24.5Z" fill="white"/>
<path fill-rule="evenodd" clip-rule="evenodd" d="M29 24.5C29 24.2236 29.2256 24 29.5 24H32.5C32.7768 24 33 24.2217 33 24.5C33 24.7759 32.7744 25 32.5 25H29.5C29.2232 25 29 24.7779 29 24.5Z" fill="white"/>
</g>
<defs>
<clipPath id="clip0_1_3">
<rect width="48" height="48" fill="white"/>
</clipPath>
</defs>
</svg>
