<svg width="38" height="38" viewBox="0 0 38 38" fill="none" xmlns="http://www.w3.org/2000/svg">
<g id="FavIcon">
<circle id="Ellipse 8" cx="19" cy="19" r="19" fill="#D9D9D9" fill-opacity="0.5"/>
<path id="Vector_id" d="M18.2963 12.2941L18.973 12.9164L19.6499 12.2942C20.555 11.4622 21.7394 11.0003 22.9688 11C23.6194 11.0006 24.2635 11.1297 24.864 11.3799C25.4647 11.6303 26.01 11.9968 26.4685 12.4586L27.1781 11.754L26.4695 12.4596C28.439 14.4375 28.4354 17.5013 26.4732 19.4627L26.473 19.4629L18.9731 26.9628L11.4732 19.4629L11.4731 19.4627C9.51039 17.5009 9.50768 14.437 11.4727 12.4636L11.4742 12.4621C11.933 11.9995 12.4788 11.6321 13.0802 11.3811C13.6814 11.1303 14.3262 11.0007 14.9776 11C16.2069 11.0002 17.3914 11.462 18.2963 12.2941Z" stroke="#3C3C3C" stroke-width="2"/>
</g>
</svg>
