<svg xmlns="http://www.w3.org/2000/svg" xmlns:xlink="http://www.w3.org/1999/xlink" width="500" height="500" viewBox="0 0 500 500"><defs><linearGradient id="a" x1="0.5" x2="0.5" y2="1" gradientUnits="objectBoundingBox"><stop offset="0" stop-color="#32d67f"/><stop offset="1" stop-color="#7430ff"/></linearGradient><linearGradient id="b" x1="0.5" x2="0.5" y2="1" gradientUnits="objectBoundingBox"><stop offset="0" stop-color="#30d57d"/><stop offset="1" stop-color="#3e69f1"/></linearGradient><linearGradient id="c" x1="0.5" x2="0.5" y2="1" gradientUnits="objectBoundingBox"><stop offset="0" stop-color="#7d2fd5"/><stop offset="1" stop-color="#3e69f1"/></linearGradient><linearGradient id="d" x1="0.5" x2="0.5" y2="1" gradientUnits="objectBoundingBox"><stop offset="0" stop-color="#30d57d"/><stop offset="1" stop-color="#afa0eb"/></linearGradient><linearGradient id="e" x1="0.5" x2="0.5" y2="1" gradientUnits="objectBoundingBox"><stop offset="0" stop-color="#678bed"/><stop offset="0.54" stop-color="#d19abf"/><stop offset="1" stop-color="#f39c81"/></linearGradient><linearGradient id="f" x1="0.5" x2="0.5" y2="1" gradientUnits="objectBoundingBox"><stop offset="0" stop-color="#678bed"/><stop offset="0.54" stop-color="#65aaac"/><stop offset="1" stop-color="#6eb8a9"/></linearGradient><linearGradient id="g" x1="0.5" x2="0.5" y2="1" gradientUnits="objectBoundingBox"><stop offset="0" stop-color="#678bed"/><stop offset="0.54" stop-color="#d19abf"/><stop offset="1" stop-color="#de7398"/></linearGradient><linearGradient id="h" x1="0.101" y1="0.296" x2="0.5" y2="1" gradientUnits="objectBoundingBox"><stop offset="0" stop-color="#6695f7"/><stop offset="0.347" stop-color="#edba8b"/><stop offset="1" stop-color="#f79978"/></linearGradient></defs><g transform="translate(16.35 16.35)"><rect width="161.856" height="161.856" transform="translate(114.449 238.402) rotate(45)" fill="url(#a)"/><rect width="161.856" height="161.856" transform="translate(352.851 0) rotate(45)" fill="url(#b)"/><rect width="161.856" height="161.856" transform="translate(114.449 0) rotate(45)" fill="url(#c)"/><rect width="161.856" height="161.856" transform="translate(352.851 238.402) rotate(45)" fill="url(#d)"/><rect width="157.231" height="157.231" transform="translate(352.851 3.27) rotate(45)" fill="#252836"/><path d="M0,0H157.231V157.231H0Z" transform="translate(352.851 241.672) rotate(45)" fill="#252836"/><rect width="157.231" height="157.231" transform="translate(114.449 241.672) rotate(45)" fill="#252836"/><rect width="157.231" height="157.231" transform="translate(114.449 3.27) rotate(45)" fill="#252836"/></g><g transform="translate(117.764 117.595)"><g transform="translate(0 0)"><path d="M36.015,0C56.447,0,73.991,14.9,73.991,33.653V220.392c0,18.752-16.563,33.953-37,33.953s-37-15.2-37-33.953V33.653C0,14.9,15.582,0,36.015,0Z" transform="translate(13.873 74.854) rotate(-45)" fill="url(#e)"/><rect width="68.273" height="138.733" rx="34.136" transform="translate(0 166.71) rotate(-45)" fill="url(#f)"/><rect width="68.273" height="161.856" rx="34.136" transform="translate(102.711 48.276) rotate(-45)" fill="url(#g)"/></g></g><g transform="translate(201.443 201.443)"><rect width="97.113" height="97.113" rx="48.557" fill="#252836"/><circle cx="35.146" cy="35.146" r="35.146" transform="translate(13.411 13.411)" fill="url(#h)"/></g><g transform="translate(0 0)"><rect width="23.122" height="23.122" transform="translate(366.831 0) rotate(45)" fill="url(#b)"/><rect width="23.122" height="23.122" transform="translate(483.65 116.595) rotate(45)" fill="url(#b)"/><rect width="23.122" height="23.122" transform="translate(483.65 350.481) rotate(45)" fill="url(#d)"/><rect width="23.122" height="23.122" transform="translate(366.971 467.3) rotate(45)" fill="url(#d)"/><rect width="23.122" height="23.122" transform="translate(132.921 467.3) rotate(45)" fill="url(#a)"/><rect width="23.122" height="23.122" transform="translate(32.7 367.055) rotate(135)" fill="url(#a)"/><rect width="23.122" height="23.122" transform="translate(16.35 149.525) rotate(-135)" fill="url(#c)"/><rect width="23.122" height="23.122" transform="translate(132.945 32.7) rotate(-135)" fill="url(#c)"/><rect width="20.81" height="20.81" transform="translate(468.935 132.962) rotate(-45)" fill="#fff"/><rect width="20.81" height="20.81" transform="translate(352.099 16.35) rotate(-45)" fill="#fff"/><rect width="20.81" height="20.81" transform="translate(118.247 16.35) rotate(-45)" fill="#fff"/><rect width="20.81" height="20.81" transform="translate(1.635 133.192) rotate(-45)" fill="#fff"/><rect width="20.81" height="20.81" transform="translate(1.635 367.038) rotate(-45)" fill="#fff"/><rect width="20.81" height="20.81" transform="translate(118.223 483.65) rotate(-45)" fill="#fff"/><rect width="20.81" height="20.81" transform="translate(352.239 483.65) rotate(-45)" fill="#fff"/><rect width="20.81" height="20.81" transform="translate(468.935 366.814) rotate(-45)" fill="#fff"/></g></svg>