<svg xmlns="http://www.w3.org/2000/svg" width="150" height="85.547" viewBox="0 0 150 85.547"><g transform="translate(2384 2322)"><ellipse cx="75" cy="42.773" rx="75" ry="42.773" transform="translate(-2384 -2322)" fill="#000"/><path d="M233.171,395.621,236.5,392.3c.02-.02.039-.02.039-.039a19.9,19.9,0,0,1,2.892-1.692c.669-.315,1.377-.61,2.145-.885.433-.138.866-.275,1.338-.413.453-.118.944-.236,1.436-.334s1-.2,1.535-.256a30.169,30.169,0,0,1,3.443-.275h1.141a1.488,1.488,0,0,1,.3.02,1.692,1.692,0,0,1,.315.02c.1,0,.2.02.3.02s.216.02.315.02.2.02.3.02c.1.02.216.02.315.039s.2.02.3.039.2.02.315.039c.1.02.2.02.3.039s.2.02.3.039a2585.637,2585.637,0,0,0,.59.079l.3.059.3.059.3.059c.1.02.2.039.275.059.1.02.2.039.275.059.1.02.177.039.275.059s.177.039.275.059.177.039.275.059.177.039.275.059c.079.02.177.039.256.059s.177.039.256.059.177.039.256.059a1.272,1.272,0,0,1,.256.079l.236.059a1.831,1.831,0,0,1,.256.079,3208.645,3208.645,0,0,0,.472.157.705.705,0,0,1,.216.079,1.111,1.111,0,0,1,.236.079c.079.02.138.039.216.059a.705.705,0,0,1,.216.079c.059.02.138.039.2.059a.958.958,0,0,1,.216.079c.059.02.118.039.2.059a.824.824,0,0,1,.2.079l.177.059.177.059a1.35,1.35,0,0,1,.157.059l.177.059c.059.02.1.039.157.059a1.349,1.349,0,0,1,.157.059c.039.02.1.039.138.059s.1.039.138.059l.118.059c.039.02.1.039.138.059s.079.02.1.039a.28.28,0,0,0,.118.039c.039.02.059.02.1.039s.059.02.1.039.059.02.079.039.059.02.079.039.039.02.059.039c.02,0,.039.02.059.02a.072.072,0,0,0,.059.02c.02,0,.02.02.039.02s.02,0,.039.02a.061.061,0,0,0,.039.02c.315.157.61.3.925.433.039.02.1.039.138.059.3.138.59.256.885.374a.7.7,0,0,1,.177.079l.885.354a.28.28,0,0,0,.118.039c.3.118.59.216.885.315.02,0,.039.02.059.02.3.1.61.2.905.3.059.02.1.039.157.059.3.1.59.177.866.256a.609.609,0,0,0,.157.039l.885.236c.039,0,.059.02.1.02.3.079.571.138.866.2.039,0,.059.02.1.02l.885.177c.059.02.118.02.157.039.3.059.571.1.866.157.059,0,.1.02.157.02.3.039.59.1.905.138h.059c.3.039.59.079.885.1a.249.249,0,0,1,.118.02c.3.039.59.059.866.079a.383.383,0,0,1,.157.02l.866.059h.138c.3.02.61.02.905.039.3,0,.61.02.905.02h.118c.413,0,.826,0,1.24-.02l1.24-.059h.1c.393-.02.767-.059,1.141-.1a.25.25,0,0,0,.118-.02l1.161-.118h.079c.413-.059.807-.1,1.22-.157h.039c.393-.059.787-.118,1.18-.2a.853.853,0,0,0,.1-.02c.374-.059.748-.138,1.1-.216.039,0,.079-.02.118-.02.374-.079.748-.157,1.141-.256a.072.072,0,0,0,.059-.02c.394-.1.787-.177,1.161-.3.02,0,.039-.02.059-.02.374-.1.748-.2,1.1-.3.039-.02.079-.02.118-.039.354-.1.708-.2,1.062-.315.039-.02.059-.02.1-.039.374-.118.728-.236,1.1-.354.02,0,.02,0,.039-.02.374-.118.748-.256,1.121-.374.02,0,.059-.02.079-.02.354-.118.689-.256,1.043-.374.039-.02.079-.02.118-.039.334-.118.669-.256,1-.393.039-.02.059-.02.1-.039.354-.138.708-.275,1.062-.433.039.039.079.059.118.1.394.315.767.63,1.141.964.275.236.551.472.807.708q.62.561,1.181,1.121c.216.216.433.413.63.63.2.2.394.413.59.61.216.236.433.452.63.689.452.492.866.984,1.279,1.476.2.236.393.472.571.708.236.315.492.63.728.944.492.649.944,1.318,1.377,2.007.571.905,1.1,1.81,1.574,2.754.236.472.472.925.669,1.4.216.472.413.944.61,1.417a28.211,28.211,0,0,1,1.613,5.863c-1.889.433-3.719.885-5.47,1.338-1.1.3-2.164.571-3.207.866q-.944.266-1.83.531l-.59.177-1.18.354c-1.161.354-2.263.708-3.325,1.043l-.531.177c-1.043.335-2.027.689-2.971,1-.472.157-.925.334-1.358.492-1.908.689-3.522,1.318-4.84,1.849-.3.118-.59.236-.866.354s-.531.216-.767.315c-.452.2-.846.354-1.161.512-1.4-1.22-6.571-5.725-10.979-9.5-5.352-4.6-12.238-10.467-14.737-12.356h-.039c-3.05-2.243-4.938-2.932-6.827-3.286H250.9a6.844,6.844,0,0,0-1.121-.079,9.628,9.628,0,0,0-2.794.433c-2.145.59-5,2.263-8.48,4.958l-.433.354c-2.243,1.771-4.368,3.463-5.961,3.758l-.059.02-.059.02a7.508,7.508,0,0,1-1.81.2,8.473,8.473,0,0,1-4.387-1.1l-.079-.059-.1-.059a1.3,1.3,0,0,1-.413-.393.691.691,0,0,1,.157-.2l.039-.039.039-.039,5.666-6.237.649-.649,1.417-1.318ZM247.436,438.2a4.747,4.747,0,0,0-.394-1.043c-.079-.157-.177-.335-.256-.492a5.7,5.7,0,0,0-4.879-2.755,4.5,4.5,0,0,0-.492.039c-.157.02-.315.039-.492.079a8.171,8.171,0,0,0-.885.236c-.138.039-.256.1-.374.138a.069.069,0,0,0-.039.02c-.157.059-.275.1-.374.138a.843.843,0,0,1-.2.059c-.059,0-.059-.079-.059-.216a1.841,1.841,0,0,1,.079-.315c.039-.118.079-.236.118-.335a4.309,4.309,0,0,0,.2-.61c.02-.118.059-.236.079-.374s.059-.3.079-.453.039-.315.059-.492c.02-.256.039-.531.039-.826,0-.2,0-.394-.02-.59a5.025,5.025,0,0,0-.236-1.18,3.818,3.818,0,0,0-.551-1.141,2.389,2.389,0,0,0-.2-.275,4.6,4.6,0,0,0-1.751-1.338c-.1-.039-.216-.1-.315-.138-.039-.02-.059-.02-.1-.039-.079-.02-.138-.059-.216-.079-.039-.02-.079-.02-.118-.039-.059-.02-.118-.039-.2-.059-.039-.02-.079-.02-.118-.039a.574.574,0,0,0-.177-.039.853.853,0,0,1-.1-.02c-.059-.02-.138-.02-.2-.039-.02,0-.059-.02-.079-.02-.1-.02-.177-.02-.275-.039h-.039c-.079,0-.157-.02-.216-.02H234.1c-.1,0-.177.02-.275.02h-.059c-.079.02-.138.02-.2.039a.072.072,0,0,0-.059.02l-.236.059h-.02c-.079.02-.138.039-.216.059-.02,0-.039.02-.059.02l-.177.059c-.02,0-.02,0-.039.02a2.033,2.033,0,0,0-.2.079c-.02,0-.039.02-.059.02-.059.02-.1.059-.157.079a.069.069,0,0,0-.039.02c-.059.039-.118.059-.177.1l-.02.02a.6.6,0,0,0-.138.1l-.039.039c-.039.039-.1.059-.138.1a.019.019,0,0,0-.02.02.6.6,0,0,1-.138.1c-.02,0-.02.02-.039.02-.039.02-.059.059-.1.079l-.02.02c-.039.039-.079.059-.1.1l-.02.02-.079.079-.02.02c-.02.039-.059.059-.079.079a.266.266,0,0,1-.2.1.093.093,0,0,1-.1-.1V427.2a3.909,3.909,0,0,0-.039-.433c-.02-.079-.02-.177-.039-.256a6.83,6.83,0,0,0-.2-.728,4.8,4.8,0,0,0-.2-.472c-.059-.1-.118-.216-.177-.315a3,3,0,0,0-.216-.315,4.582,4.582,0,0,0-.866-.885,2.5,2.5,0,0,0-.374-.256,5.734,5.734,0,0,0-1.161-.512c-.118-.039-.216-.059-.334-.1-.039,0-.059-.02-.1-.02-.079-.02-.177-.039-.256-.059-.02,0-.039-.02-.079-.02-.1-.02-.216-.039-.315-.059a.118.118,0,0,1-.079-.02c-.079-.02-.157-.02-.236-.039h-.079c-.1,0-.2-.02-.3-.02h-.689c-.059,0-.138.02-.2.02h-.079a5.381,5.381,0,0,0-.551.1c-.02,0-.039.02-.079.02-.059.02-.118.039-.2.059-.02,0-.059.02-.079.02l-.177.059c-.02,0-.039.02-.079.02-.059.02-.138.059-.2.079-.02,0-.02,0-.039.02-.079.039-.157.059-.236.1a.019.019,0,0,0-.02.02c-.059.039-.138.059-.2.1-.02.02-.039.02-.059.039-.059.02-.1.059-.157.079-.02.02-.039.02-.059.039-.059.039-.1.059-.157.1a.069.069,0,0,0-.039.02c-.138.079-.256.177-.393.256-.02,0-.02.02-.039.02a.855.855,0,0,0-.138.118c-.02.02-.039.02-.039.039-.039.039-.079.059-.118.1-.02.02-.039.02-.039.039-.039.039-.1.079-.138.118l-.02.02c-.1.1-.2.177-.3.275l-.039.039-.1.1-.039.039-.1.1-.039.039-.1.1V425l-.02.02a.522.522,0,0,0-.1.118l-.02.02c-.02.039-.059.059-.079.1l-.039.039c-.02.02-.039.059-.059.079,0,.02-.02.02-.02.039a.271.271,0,0,0-.059.079l-.02.02c-.02.039-.039.059-.059.1,0-.059-.02-.118-.02-.177a4.6,4.6,0,0,0-8.814-.944,4.68,4.68,0,0,0-.315,1.672,4.506,4.506,0,0,0,4.565,4.565,4.272,4.272,0,0,0,3.148-1.279v.138a7.8,7.8,0,0,0-.079,1.338,3.635,3.635,0,0,0,.02.453,5.429,5.429,0,0,0,.2,1.22,3.9,3.9,0,0,0,.256.767,5.209,5.209,0,0,0,.551,1.023,5.075,5.075,0,0,0,1.1,1.161,4.394,4.394,0,0,0,.59.394,6.9,6.9,0,0,0,1.082.512,2.389,2.389,0,0,0,.275.1c.02,0,.039.02.059.02a1.448,1.448,0,0,0,.275.079h.039l.236.059h.059c.079.02.177.02.256.039H224a.958.958,0,0,1,.236.02h.079a1.8,1.8,0,0,0,.315-.02.177.177,0,0,0,.1-.02c.1-.02.177-.02.275-.039a.118.118,0,0,0,.079-.02c.118-.02.216-.059.334-.079.02,0,.039-.02.079-.02a1.365,1.365,0,0,0,.256-.1c.039-.02.059-.02.1-.039.1-.039.177-.079.275-.118.02,0,.039-.02.059-.02.1-.059.216-.1.315-.157a.149.149,0,0,1,.079-.039,1.466,1.466,0,0,0,.236-.138c.02-.02.059-.039.079-.059a2.567,2.567,0,0,0,.3-.2,1.212,1.212,0,0,1,.118-.079c.02,0,.02-.02.039-.02.02-.02.039-.02.079-.039a.019.019,0,0,0,.02-.02c.02,0,.039-.02.059-.02h.02c.02,0,.039,0,.039.02.02,0,.02.02.02.039s.02.039.02.059v.2c0,.059-.02.138-.02.2,0,.079-.02.157-.02.236v.118a1.121,1.121,0,0,0,.02.256,3.161,3.161,0,0,0,.1.571,2.993,2.993,0,0,0,.216.63,2.355,2.355,0,0,0,.157.315,2.756,2.756,0,0,0,.2.315,4.073,4.073,0,0,0,.551.63c.118.1.236.216.354.315a6.778,6.778,0,0,0,1.731.964c.079.039.157.059.256.1.02,0,.059.02.079.02a1.351,1.351,0,0,1,.157.059c.039,0,.059.02.079.02.059.02.1.02.157.039.02,0,.059.02.079.02.059.02.1.02.157.039.02,0,.059.02.079.02.059.02.118.02.177.039h.039a.809.809,0,0,0,.216.02h.059a.335.335,0,0,1,.138.02h.472c.079,0,.138-.02.2-.02h.059c.059,0,.1-.02.157-.02h.039c.059-.02.118-.02.2-.039h.039c.059-.02.1-.02.157-.039.02,0,.039-.02.059-.02.059-.02.1-.039.157-.059h.02a.4.4,0,0,0,.157-.079c.02,0,.02-.02.039-.02l.118-.059c.02,0,.02-.02.039-.02.059-.02.1-.059.157-.079.02,0,.02-.02.039-.02a.412.412,0,0,0,.118-.079c.02,0,.02-.02.039-.02.039-.02.079-.059.138-.1a.831.831,0,0,1,.138-.1c.02,0,.02-.02.039-.02.039-.02.059-.059.1-.079l.02-.02c.039-.039.079-.059.118-.1l.02-.02c.039-.02.059-.059.1-.079l.02-.02c.039-.039.079-.059.1-.1l.1-.1.02-.02c.039-.02.059-.059.1-.059h.02c.02-.02.039-.02.079-.039h.02c.02,0,.039-.02.059-.02h.059a.019.019,0,0,1,.02.02l.02.02a.069.069,0,0,1,.02.039c0,.02.02.039.02.059v.02a.072.072,0,0,0,.02.059v.335a6.756,6.756,0,0,0,.157,1.1,5.8,5.8,0,0,0,.925,1.948,6.925,6.925,0,0,0,.708.807c.138.118.256.236.413.354a5.978,5.978,0,0,0,.905.59c.157.079.315.157.492.236a5.848,5.848,0,0,0,.767.256,5.022,5.022,0,0,0,.531.1,5.742,5.742,0,0,0,4.309-1.121c.059-.039.1-.079.157-.118.138-.118.275-.236.413-.374a4.091,4.091,0,0,0,.531-.63,2.056,2.056,0,0,1,.157-.216,5.509,5.509,0,0,0,.63-1.22,5.887,5.887,0,0,0,.354-1.948,4.926,4.926,0,0,0-.177-1.456Zm35.454-13.5a2.685,2.685,0,0,0-.571-.689l-.846-.728c-.433-.374-1.141-.984-2.066-1.79-5.352-4.643-19.537-16.96-23.315-19.773a20.18,20.18,0,0,0-4.427-2.636,7.183,7.183,0,0,0-1.849-.275,8.1,8.1,0,0,0-2.341.393l-.039.02-.039.02c-1.889.512-4.073,2.223-6.178,3.9-.236.177-.453.354-.689.531-2.577,2.105-5.312,4.191-7.654,4.742h-.039a15.037,15.037,0,0,1-3.109.335c-2.971,0-5.47-.925-6.67-2.479l-.02-.02-.02-.02a3.311,3.311,0,0,1,.453-4.328L229,395.8l.039-.039.039-.039c.551-.551,1.1-1.1,1.653-1.633-.885.157-1.751.354-2.617.551-.649.157-1.3.315-1.928.472-.393.1-.787.216-1.18.315-.256.059-.531.138-.787.2-.393.1-.767.2-1.141.275a15.68,15.68,0,0,1-1.889.3l-.748.059h-.374a46.261,46.261,0,0,1-6.276-1c-.492-.138-.984-.275-1.476-.393-.315-.1-.649-.177-.964-.275-.472-.138-.964-.275-1.436-.413-.315-.1-.649-.2-.964-.3-.157-.059-.315-.1-.492-.157-.492-.157-.964-.315-1.456-.472-.334-.1-.649-.216-.984-.334-.492-.177-1-.354-1.515-.551-.354-.138-.689-.256-1.043-.393-.236-.079-.453-.177-.689-.275-.256-.1-.512-.2-.787-.315-.138-.059-.256-.1-.393-.157-.472-.2-.964-.393-1.476-.61-.256-.1-.512-.216-.767-.334-.728-.315-1.5-.649-2.282-1.023-.767.571-1.5,1.161-2.223,1.771s-1.417,1.22-2.086,1.83c-.216.2-.433.413-.649.63-.433.413-.866.846-1.259,1.279-.413.433-.807.866-1.2,1.3s-.767.885-1.121,1.338c-.374.453-.708.905-1.062,1.358-.177.236-.334.453-.492.689-.492.689-.944,1.4-1.377,2.125-.3.472-.551.964-.826,1.436a28.54,28.54,0,0,0-2.971,8.362c1.141.3,3.148.866,3.856,1,4.919,1.1,8.952,2.2,12.218,3.266.571.177,1.141.374,1.672.551,1.594.551,2.991,1.082,4.191,1.574.61.256,1.18.492,1.692.728a5.345,5.345,0,0,0,.492.216c1.082.512,1.987.964,2.7,1.358l.413.236c.059.039.138.079.2.118.2.118.394.236.571.354.059.039.1.059.157.1a1.089,1.089,0,0,1,.157.118c.039.039.1.059.138.1.059.039.138.1.2.138s.1.079.138.1c.02.02.039.02.059.039.059.039.118.1.177.138a7.039,7.039,0,0,1,10.408.236,7.953,7.953,0,0,1,4.407-1.318,8.46,8.46,0,0,1,2.676.433,6.8,6.8,0,0,1,3.974,3.069,6.717,6.717,0,0,1,2.145-.334,8.571,8.571,0,0,1,3.443.787,6.763,6.763,0,0,1,3.679,3.935,8.9,8.9,0,0,1,.453,3.286,8.079,8.079,0,0,1,7.949,8.067,8.174,8.174,0,0,1-.905,3.719c.059.02.118.059.177.079.039.02.1.039.138.059.059.039.138.059.2.1.059.02.1.039.157.059s.138.059.216.079c.059.02.1.039.157.059.079.039.138.059.216.1a1.36,1.36,0,0,1,.157.059c.079.02.157.059.236.079a1.361,1.361,0,0,1,.157.059,1.127,1.127,0,0,0,.275.079c.059.02.1.039.157.059a2.076,2.076,0,0,0,.374.1c.02,0,.039.02.059.02a3.425,3.425,0,0,0,.433.1c.039,0,.1.02.138.02.1.02.216.039.315.059.059,0,.118.02.177.02.1.02.2.02.275.039.059,0,.118.02.2.02.1,0,.177.02.275.02h.61a3.215,3.215,0,0,0,.433-.039c.256-.039.472-.079.689-.118s.393-.1.571-.138c.177-.059.334-.1.472-.157a4.931,4.931,0,0,0,.551-.256c.1-.059.2-.118.275-.177a2.086,2.086,0,0,0,.216-.177,1.249,1.249,0,0,0,.216-.256,1.962,1.962,0,0,1,.157-.275.43.43,0,0,1,.059-.1.606.606,0,0,0,.059-.256.3.3,0,0,0-.118-.216l-2.636-2.932-2.617-2.912a2.67,2.67,0,0,1-.63-.925.222.222,0,0,1,.059-.216c.02-.02.039-.039.059-.039a.019.019,0,0,0,.02-.02c.02,0,.02-.02.039-.02h.118a.177.177,0,0,1,.1.02h.02c.039,0,.059.02.1.039h.02l.118.059a.019.019,0,0,1,.02.02c.039.02.059.039.1.059h.02a.411.411,0,0,1,.118.079l.02.02a.411.411,0,0,1,.118.079h.02c.039.02.079.059.118.079a.858.858,0,0,0,.138.079c.256.216.512.433.767.669.354.315.689.61,1.023.925.256.236.512.472.748.708.256.236.492.472.708.689.472.452.885.866,1.259,1.24.787.787,1.318,1.338,1.318,1.338l.1.1a2.622,2.622,0,0,0,.767.433,1.859,1.859,0,0,0,.177.059c.118.039.256.079.394.118.059,0,.118.02.177.02h1c.059,0,.118-.02.2-.02h.079c.059,0,.118-.02.177-.02a.118.118,0,0,0,.079-.02c.059-.02.138-.02.2-.039h.059c.079-.02.177-.039.256-.059.02,0,.039-.02.059-.02.059-.02.138-.039.2-.059.02,0,.059-.02.079-.02l.177-.059c.02,0,.059-.02.079-.02.079-.02.157-.059.216-.079.02,0,.02,0,.039-.02.079-.039.177-.079.256-.118.02-.02.059-.02.079-.039.059-.039.118-.059.177-.1a.149.149,0,0,1,.079-.039,1.1,1.1,0,0,0,.157-.1.149.149,0,0,1,.079-.039,2.052,2.052,0,0,0,.216-.157,5.506,5.506,0,0,1,.492-.433,2.243,2.243,0,0,0,.216-.216c.039-.039.059-.079.1-.1a.43.43,0,0,1,.059-.1,1.091,1.091,0,0,1,.118-.157,3.428,3.428,0,0,0,.275-.531.887.887,0,0,0,.059-.216.7.7,0,0,0,.039-.2,1.521,1.521,0,0,0,.039-.3,2.5,2.5,0,0,0-.059-.689c-.02-.079-.039-.138-.059-.216,0-.02-.02-.039-.02-.059a2.9,2.9,0,0,0-.236-.551,2.455,2.455,0,0,0-.315-.492l-6.139-6.847-.138-.138a.271.271,0,0,1-.059-.079c-.039-.059-.1-.1-.138-.157s-.1-.118-.138-.177c-.02-.039-.039-.059-.059-.1a.687.687,0,0,1-.118-.354.179.179,0,0,1,.059-.138c.02-.02.039-.039.059-.039a.019.019,0,0,0,.02-.02c.02,0,.02-.02.039-.02h.02c.02,0,.02,0,.039-.02h.059a.178.178,0,0,1,.1.02h.02c.039,0,.059.02.1.039h.02l.118.059.02.02a.43.43,0,0,1,.1.059h.02a.411.411,0,0,1,.118.079c.02,0,.02.02.039.02a.2.2,0,0,1,.1.079h.02c.039.02.079.059.118.079.039.039.1.059.138.1.118.1.256.2.374.315.649.531,1.377,1.2,2.125,1.908.157.138.3.3.453.433.61.59,1.24,1.24,1.889,1.889.807.807,1.613,1.633,2.42,2.44l.059.059a.019.019,0,0,1,.02.02c.02.02.039.02.059.039l.02.02c.02.02.039.02.059.039a.069.069,0,0,0,.039.02c.02.02.059.039.079.059a.019.019,0,0,1,.02.02.411.411,0,0,1,.118.079.019.019,0,0,1,.02.02c.039.02.059.039.1.059a.069.069,0,0,1,.039.02c.039.02.059.039.1.039.02,0,.039.02.059.02a.28.28,0,0,0,.118.039.069.069,0,0,1,.039.02,1.363,1.363,0,0,1,.157.059l.177.059c.02,0,.039.02.059.02.039.02.1.02.138.039.02,0,.039.02.079.02a.5.5,0,0,1,.138.039.072.072,0,0,1,.059.02c.059,0,.1.02.157.02a.072.072,0,0,1,.059.02.808.808,0,0,0,.216.02h.039c.059,0,.118.02.177.02h.61c.059,0,.138-.02.2-.02h.059c.059,0,.1-.02.157-.02a.149.149,0,0,0,.079-.02.464.464,0,0,0,.157-.039.072.072,0,0,0,.059-.02c.079-.02.157-.039.216-.059h.02c.079-.02.138-.039.216-.059.02,0,.039-.02.079-.02a1.356,1.356,0,0,0,.157-.059c.02,0,.059-.02.079-.02a2.056,2.056,0,0,1,.2-.079c.02,0,.039-.02.059-.02l.236-.118c.02,0,.039-.02.059-.039a1.825,1.825,0,0,1,.2-.1c.02-.02.059-.02.079-.039.059-.039.118-.059.177-.1.02-.02.059-.02.079-.039.079-.059.177-.1.256-.157a5.731,5.731,0,0,0,.649-.512,4.182,4.182,0,0,0,.512-.512,3.581,3.581,0,0,0,.256-.315,3.811,3.811,0,0,0,.393-.649,5.13,5.13,0,0,0,.2-.492,2.076,2.076,0,0,0,.118-.472.957.957,0,0,0,.02-.236.959.959,0,0,1,.02-.236,3.05,3.05,0,0,0-.02-.433,1,1,0,0,0-.039-.256,3.589,3.589,0,0,0-.138-.492,4.806,4.806,0,0,0-.2-.472,1.056,1.056,0,0,1-.1-.216c-.079-.138-.157-.256-.236-.374a4.034,4.034,0,0,0-.59-.748l-8.283-8.421s-.866-.708-.571-1.141c.02-.02.039-.039.059-.039h.02c.02,0,.02-.02.039-.02h.118a.177.177,0,0,1,.1.02h.02c.039,0,.059.02.1.02h.02l.118.059a.019.019,0,0,1,.02.02.431.431,0,0,1,.1.059h.02a.412.412,0,0,1,.118.079.069.069,0,0,0,.039.02.411.411,0,0,1,.118.079c.039.02.079.059.118.079s.079.059.118.079c.177.138.354.3.551.472s.413.354.649.551c.118.1.236.2.354.315.236.216.492.433.748.649.118.118.256.236.393.354.256.236.531.472.807.728l1.24,1.121c.826.748,1.633,1.476,2.361,2.145.118.118.236.216.354.335,1.4,1.279,2.4,2.2,2.4,2.2h.039c.02,0,.02.02.039.02h.02c.02,0,.039.02.059.02a.429.429,0,0,0,.1.059h.02a.149.149,0,0,0,.079.039c.02,0,.02.02.039.02.039.02.059.039.1.039a.069.069,0,0,0,.039.02c.039.02.1.039.138.059h.02a.96.96,0,0,0,.138.059.069.069,0,0,1,.039.02l.118.059c.02,0,.039.02.059.02.118.039.256.079.393.118.02,0,.039.02.059.02.059.02.1.02.157.039a.149.149,0,0,1,.079.02c.059.02.118.02.177.039h.039c.079.02.157.02.236.039h.059c.059,0,.118.02.2.02h.708c.079,0,.157-.02.236-.02.039,0,.059,0,.079-.02.1-.02.216-.039.315-.059s.216-.059.334-.079c.039,0,.059-.02.1-.02a1.538,1.538,0,0,0,.275-.1c.02,0,.059-.02.079-.02.118-.039.236-.1.354-.138.02-.02.059-.02.079-.039.1-.039.2-.1.3-.138.039-.02.059-.039.1-.059.118-.059.236-.138.374-.216a5.2,5.2,0,0,0,.807-.63.432.432,0,0,0,.079-.1q.088-.118.236-.354a3.783,3.783,0,0,0,.059-3.679Z" transform="translate(-2555.8 -2696.4)" fill="#ccc"/></g></svg>