<svg width="48" height="48" viewBox="0 0 48 48" fill="none" xmlns="http://www.w3.org/2000/svg">
<g clip-path="url(#clip0_1_23)">
<path fill-rule="evenodd" clip-rule="evenodd" d="M24 0.5C30.49 0.5 36.364 3.13 40.617 7.383C44.87 11.636 47.5 17.511 47.5 24C47.5 30.49 44.87 36.364 40.617 40.617C36.364 44.87 30.489 47.5 24 47.5C17.51 47.5 11.636 44.87 7.383 40.617C3.13 36.364 0.5 30.489 0.5 24C0.5 17.51 3.13 11.636 7.383 7.383C11.636 3.13 17.511 0.5 24 0.5Z" stroke="#EEEEEE"/>
<path fill-rule="evenodd" clip-rule="evenodd" d="M14 24.5C14 24.224 14.225 24 14.5 24H17.5C17.777 24 18 24.222 18 24.5C18 24.776 17.774 25 17.5 25H14.5C14.223 25 14 24.778 14 24.5ZM19 24.5C19 24.224 19.225 24 19.5 24H22.5C22.776 24 23 24.222 23 24.5C23 24.776 22.774 25 22.5 25H19.5C19.223 25 19 24.778 19 24.5ZM24 24.5C24 24.224 24.226 24 24.5 24H27.5C27.776 24 28 24.222 28 24.5C28 24.776 27.774 25 27.5 25H24.5C24.223 25 24 24.778 24 24.5ZM30 24.5C30 24.224 30.226 24 30.5 24H33.5C33.777 24 34 24.222 34 24.5C34 24.776 33.774 25 33.5 25H30.5C30.223 25 30 24.778 30 24.5Z" fill="white"/>
<path fill-rule="evenodd" clip-rule="evenodd" d="M24.797 14C22.371 14 20.4 15.97 20.4 18.397C20.4 20.824 22.37 22.8 24.797 22.8C27.224 22.8 29.2 20.824 29.2 18.397C29.2 15.971 27.224 14 24.797 14Z" fill="#5697FA"/>
<path fill-rule="evenodd" clip-rule="evenodd" d="M24.724 20.533V21.062C24.724 21.14 24.654 21.2 24.571 21.2H24.318C24.235 21.2 24.171 21.14 24.171 21.062V20.539C23.188 20.437 22.8 19.746 22.8 19.26C22.8 19.182 22.864 19.122 22.946 19.122H23.327C23.41 19.122 23.46 19.188 23.467 19.248C23.486 19.447 23.613 19.981 24.432 19.981C24.984 19.981 25.321 19.813 25.321 19.351C25.321 18.389 22.915 19.002 22.915 17.421C22.915 16.755 23.372 16.364 24.171 16.298V15.715C24.171 15.655 24.222 15.601 24.292 15.601H24.603C24.667 15.601 24.723 15.655 24.723 15.715V16.305C25.581 16.4 25.911 16.947 25.911 17.41C25.911 17.488 25.841 17.548 25.759 17.548H25.378C25.295 17.548 25.245 17.506 25.226 17.422C25.181 17.133 25.022 16.857 24.432 16.857C23.93 16.857 23.594 16.971 23.594 17.422C23.594 18.4 26 17.775 26 19.35C26 20.125 25.397 20.461 24.724 20.533ZM18.416 32.69C18.416 32.76 18.359 32.817 18.288 32.817H14.512C14.441 32.817 14.384 32.761 14.384 32.689V24.911C14.384 24.839 14.441 24.783 14.512 24.783H18.288C18.359 24.783 18.416 24.839 18.416 24.911V32.689V32.69ZM18.288 24.4H14.512C14.225 24.4 14 24.63 14 24.91V32.69C14 32.766 14.015 32.842 14.051 32.909C14.133 33.083 14.307 33.2 14.512 33.2H18.288C18.575 33.2 18.8 32.97 18.8 32.69V24.91C18.8 24.63 18.575 24.4 18.288 24.4Z" fill="white"/>
<path fill-rule="evenodd" clip-rule="evenodd" d="M18.8 25.174H27.2C27.693 25.174 28.377 25.504 28.377 26.38C28.377 27.256 27.714 27.648 27.171 27.648H24.065C23.825 27.648 23.643 27.761 23.643 28C23.643 28.239 23.796 28.375 24.024 28.375H27.856C30.186 26.361 31.594 25.14 32.083 24.71C32.817 24.066 33.457 24.608 33.577 24.71C33.698 24.813 34.392 25.474 33.691 26.399C32.991 27.324 30.535 30.394 30.16 30.847C29.785 31.3 29.328 31.6 27.962 31.6H19.158L18.8 25.174Z" fill="#5697FA"/>
<path d="M17.92 23.6H15.68C14.7522 23.6 14 24.3521 14 25.28V31.52C14 32.4478 14.7522 33.2 15.68 33.2H17.92C18.8478 33.2 19.6 32.4478 19.6 31.52V25.28C19.6 24.3521 18.8478 23.6 17.92 23.6Z" fill="#0763EE"/>
</g>
<defs>
<clipPath id="clip0_1_23">
<rect width="48" height="48" fill="white"/>
</clipPath>
</defs>
</svg>
