<svg width="51" height="55" viewBox="0 0 51 55" fill="none" xmlns="http://www.w3.org/2000/svg">
<g clip-path="url(#clip0_2_2)">
<path d="M22.8787 33.8789L17.2929 28.2931C16.9024 27.9026 16.9024 27.2694 17.2929 26.8789L18.8787 25.2931C19.2692 24.9026 19.9024 24.9026 20.2929 25.2931L23.5858 28.586L32.8787 19.2931C33.2692 18.9026 33.9024 18.9026 34.2929 19.2931L35.8787 20.8789C36.2692 21.2694 36.2692 21.9026 35.8787 22.2931L24.2929 33.8789C23.9024 34.2694 23.2692 34.2694 22.8787 33.8789Z" fill="#3483FA"/>
<path fill-rule="evenodd" clip-rule="evenodd" d="M25.7087 1.4126C25.7087 1.4126 18.7087 11.4126 1.70867 8.4126C1.70867 8.4126 -4.29133 37.7676 25.7087 53.5906C55.7087 37.7676 49.7087 8.4126 49.7087 8.4126C32.7087 11.4126 25.7087 1.4126 25.7087 1.4126Z" stroke="#474747" stroke-width="1.413" stroke-linecap="round" stroke-linejoin="round"/>
</g>
<defs>
<clipPath id="clip0_2_2">
<rect width="51" height="55" fill="white"/>
</clipPath>
</defs>
</svg>
